<svg width="240" height="614" viewBox="0 0 240 614" fill="none" xmlns="http://www.w3.org/2000/svg">
<mask id="mask0_1_2694" style="mask-type:alpha" maskUnits="userSpaceOnUse" x="0" y="0" width="240" height="614">
<rect width="240" height="614" fill="#D9D9D9"/>
</mask>
<g mask="url(#mask0_1_2694)">
<path d="M352.668 753.561L159.91 801.824C145.376 805.487 129.855 800.406 121.306 789.182L6.15093 637.954C-2.39854 626.73 -2.00395 611.785 7.13741 600.915L135.577 448.565C144.915 437.459 161.291 433.147 175.891 437.932L371.871 502.558C386.734 507.461 396.139 520.635 394.889 534.812L378.382 725.442C377.198 738.734 366.939 749.958 352.668 753.561Z" fill="#E77A29"/>
<mask id="mask1_1_2694" style="mask-type:alpha" maskUnits="userSpaceOnUse" x="0" y="331" width="240" height="422">
<rect y="331" width="240" height="422" fill="#D9D9D9"/>
</mask>
<g mask="url(#mask1_1_2694)">
<path d="M-94.1819 634.012L-248.618 574.554C-260.275 570.09 -267.94 558.249 -267.681 545.099L-264.16 367.941C-263.9 354.791 -255.686 343.234 -243.798 339.304L-76.958 284.377C-64.812 280.361 -51.5792 285.245 -44.3717 296.388L52.166 446.274C59.4863 457.643 58.7609 472.759 50.3845 483.279L-62.047 624.889C-69.9081 634.746 -82.7319 638.39 -94.1819 634.012Z" stroke="#57BEC5" stroke-width="2" stroke-miterlimit="10"/>
</g>
<path d="M442.132 564.009L246.934 618.419C232.216 622.548 216.499 616.821 207.841 604.167L91.2288 433.677C82.5711 421.024 82.9707 404.175 92.2278 391.921L222.293 220.165C231.75 207.645 248.333 202.783 263.117 208.178L461.578 281.036C476.63 286.563 486.153 301.415 484.888 317.398L468.172 532.309C466.973 547.293 456.584 559.947 442.132 564.009Z" stroke="#C464A2" stroke-width="2" stroke-miterlimit="10"/>
</g>
</svg>
